<?xml version="1.0" encoding="utf-8"?>
<!-- Generator: Adobe Illustrator 16.0.4, SVG Export Plug-In . SVG Version: 6.00 Build 0)  -->
<!DOCTYPE svg PUBLIC "-//W3C//DTD SVG 1.1//EN" "http://www.w3.org/Graphics/SVG/1.1/DTD/svg11.dtd">
<svg version="1.1" id="Layer_1" xmlns="http://www.w3.org/2000/svg" xmlns:xlink="http://www.w3.org/1999/xlink" x="0px" y="0px"
	 width="235.341px" height="35px" viewBox="-4.729 1.6 235.341 35" enable-background="new -4.729 1.6 235.341 35"
	 xml:space="preserve">
<g display="none">
	<path display="inline" d="M13.191,8.252c8.361,0,15.133,5.978,15.133,14.756c0,8.777-6.772,14.506-15.133,14.506H0.399V8.252
		H13.191z M13.191,30.952c4.18,0,7.817-2.928,7.817-7.943c0-5.016-3.637-8.193-7.817-8.193H7.422v16.137H13.191z"/>
	<path display="inline" d="M47.05,32.917H35.47l-1.672,4.599h-7.566L37.937,8.252h6.647l11.705,29.262h-7.566L47.05,32.917z
		 M44.792,26.771l-2.09-5.685c-0.627-1.672-1.38-4.306-1.421-4.306h-0.042c-0.042,0-0.794,2.634-1.421,4.306l-2.091,5.685H44.792z"
		/>
	<path display="inline" d="M57.875,37.515V8.252h7.023v29.262L57.875,37.515L57.875,37.515z"/>
	<path display="inline" fill="#00A4A7" d="M84.086,17.533c-0.711-2.592-2.97-3.805-5.06-3.805s-3.302,1.046-3.302,2.215
		c0,1.924,2.925,2.634,6.479,3.931c4.348,1.588,8.903,4.055,8.903,9.07c0,5.352-4.6,9.155-11.412,9.155
		c-6.104,0-10.451-3.386-12.375-8.861l6.73-1.798c0.752,2.217,2.842,4.432,5.936,4.432c2.51,0,3.68-1.172,3.68-2.593
		c0-2.34-3.428-2.926-7.607-4.515c-3.512-1.338-7.567-3.262-7.567-8.402c0-4.557,4.599-8.695,10.953-8.695
		c5.602,0,10.033,3.428,11.412,8.027L84.086,17.533z"/>
	<path display="inline" fill="#00A4A7" d="M118.737,8.252v29.262h-7.021v-11.37h-10.953v11.371H93.74V8.252h7.022v11.329h10.952
		V8.252H118.737z"/>
	<path display="inline" fill="#00A4A7" d="M136.629,7.667c8.402,0,15.216,6.396,15.216,15.216c0,8.822-6.813,15.217-15.216,15.217
		c-8.401,0-15.176-6.396-15.176-15.217C121.453,14.064,128.228,7.667,136.629,7.667z M136.629,31.161
		c4.765,0,7.899-3.386,7.899-8.277c0-4.933-3.135-8.277-7.899-8.277c-4.726,0-7.858,3.344-7.858,8.277
		C128.771,27.775,131.903,31.161,136.629,31.161z M144.278,0.1v5.393h-14.506V0.1H144.278z"/>
</g>
<g>
	<path d="M2.697,24.089v10.965h-7.427V3.062H7.487c3.794,0,6.804,0.967,9.031,2.9s3.34,4.475,3.34,7.625s-1.113,5.688-3.34,7.614
		c-2.227,1.926-5.237,2.889-9.031,2.889H2.697z M2.697,18.376h4.79c1.611,0,2.842-0.443,3.691-1.33
		c0.85-0.886,1.274-2.025,1.274-3.417c0-1.421-0.421-2.585-1.264-3.494S9.113,8.774,7.487,8.774h-4.79V18.376z"/>
	<path d="M36.435,28.835h-9.514l-1.846,6.219h-7.822L27.69,3.062h3.977v0.022l0.022-0.022h3.977l10.459,31.993h-7.822L36.435,28.835
		z M28.635,23.123h6.086l-2.988-9.932h-0.132L28.635,23.123z"/>
	<path d="M68.712,8.774h-8.459v26.28h-7.426V8.774h-8.306V3.062h24.191V8.774z"/>
	<path fill="#6E5BAA" d="M84.954,35.054V3.062h11.711c3.765,0,6.914,1.227,9.449,3.681c2.533,2.454,3.801,5.599,3.801,9.437v5.757
		c0,3.853-1.268,7.002-3.801,9.448c-2.535,2.446-5.685,3.67-9.449,3.67H84.954z M92.381,8.774v20.567h4.284
		c1.685,0,3.073-0.689,4.164-2.066c1.092-1.377,1.637-3.156,1.637-5.339v-5.801c0-2.153-0.545-3.918-1.637-5.295
		c-1.091-1.377-2.479-2.065-4.164-2.065H92.381z"/>
	<path fill="#6E5BAA" d="M140.566,3.062v20.743c0,3.662-1.216,6.529-3.646,8.602c-2.433,2.073-5.604,3.109-9.515,3.109
		c-3.94,0-7.134-1.036-9.58-3.109c-2.446-2.072-3.669-4.939-3.669-8.602V3.062h7.448v20.743c0,1.977,0.513,3.471,1.538,4.482
		c1.025,1.01,2.446,1.516,4.263,1.516c1.802,0,3.204-0.502,4.208-1.506c1.003-1.002,1.505-2.5,1.505-4.492V3.062H140.566z"/>
	<path fill="#6E5BAA" d="M170.758,30.637c-1.113,1.348-2.681,2.497-4.702,3.45c-2.021,0.951-4.622,1.428-7.801,1.428
		c-3.97,0-7.192-1.216-9.668-3.647s-3.713-5.589-3.713-9.47v-6.68c0-3.853,1.205-7.002,3.614-9.448
		C150.898,3.823,154,2.6,157.794,2.6c4.087,0,7.174,0.912,9.262,2.736c2.087,1.823,3.094,4.317,3.021,7.481l-0.045,0.132h-6.965
		c0-1.567-0.418-2.732-1.252-3.494c-0.836-0.762-2.096-1.143-3.779-1.143c-1.729,0-3.121,0.681-4.176,2.043
		s-1.582,3.135-1.582,5.317v6.724c0,2.227,0.524,4.018,1.571,5.371c1.048,1.355,2.517,2.033,4.405,2.033
		c1.363,0,2.436-0.109,3.22-0.33c0.783-0.219,1.402-0.512,1.856-0.879V22.88h-5.669v-4.921h13.096V30.637z"/>
	<path fill="#6E5BAA" d="M191.961,28.835h-9.515l-1.846,6.219h-7.822l10.438-31.993h3.977v0.022l0.022-0.022h3.978l10.459,31.993
		h-7.822L191.961,28.835z M184.161,23.123h6.086l-2.988-9.932h-0.132L184.161,23.123z"/>
	<path fill="#6E5BAA" d="M230.611,35.054h-7.405l-11.711-20.127l-0.132,0.044v20.083h-7.427V3.062h7.427l11.712,20.105l0.131-0.044
		V3.062h7.405V35.054z"/>
</g>
</svg>
