<?xml version="1.0" encoding="utf-8"?>
<!-- Generator: Adobe Illustrator 16.0.0, SVG Export Plug-In . SVG Version: 6.00 Build 0)  -->
<!DOCTYPE svg PUBLIC "-//W3C//DTD SVG 1.1//EN" "http://www.w3.org/Graphics/SVG/1.1/DTD/svg11.dtd">
<svg version="1.1" id="Layer_1" xmlns="http://www.w3.org/2000/svg" xmlns:xlink="http://www.w3.org/1999/xlink" x="0px" y="0px"
	 width="236.957px" height="33.934px" viewBox="0 0 236.957 33.934" enable-background="new 0 0 236.957 33.934"
	 xml:space="preserve">
<g display="none">
	<path display="inline" d="M13.191,8.252c8.361,0,15.133,5.979,15.133,14.756s-6.772,14.507-15.133,14.507H0.399V8.252H13.191z
		 M13.191,30.952c4.18,0,7.817-2.928,7.817-7.943s-3.637-8.192-7.817-8.192H7.422v16.137L13.191,30.952L13.191,30.952z"/>
	<path display="inline" d="M47.05,32.917H35.47l-1.672,4.6h-7.566L37.937,8.252h6.647l11.705,29.263h-7.566L47.05,32.917z
		 M44.792,26.771l-2.09-5.686c-0.627-1.672-1.38-4.306-1.421-4.306h-0.042c-0.042,0-0.794,2.634-1.421,4.306l-2.091,5.686H44.792z"
		/>
	<path display="inline" d="M57.875,37.515V8.252h7.023v29.263L57.875,37.515L57.875,37.515z"/>
	<path display="inline" fill="#00A4A7" d="M84.086,17.533c-0.711-2.592-2.97-3.805-5.06-3.805c-2.09,0-3.302,1.046-3.302,2.215
		c0,1.924,2.925,2.634,6.479,3.931c4.348,1.588,8.903,4.056,8.903,9.07c0,5.352-4.6,9.155-11.412,9.155
		c-6.104,0-10.451-3.387-12.375-8.861l6.73-1.798c0.752,2.217,2.842,4.432,5.936,4.432c2.51,0,3.68-1.172,3.68-2.593
		c0-2.34-3.428-2.926-7.607-4.515c-3.512-1.339-7.567-3.263-7.567-8.402c0-4.557,4.599-8.695,10.953-8.695
		c5.602,0,10.033,3.428,11.412,8.027L84.086,17.533z"/>
	<path display="inline" fill="#00A4A7" d="M118.737,8.252v29.263h-7.021v-11.37h-10.953v11.371H93.74V8.252h7.022v11.329h10.952
		V8.252H118.737z"/>
	<path display="inline" fill="#00A4A7" d="M136.628,7.667c8.402,0,15.217,6.396,15.217,15.216c0,8.822-6.812,15.218-15.217,15.218
		c-8.4,0-15.176-6.396-15.176-15.218C121.453,14.064,128.228,7.667,136.628,7.667z M136.628,31.161c4.766,0,7.899-3.386,7.899-8.277
		c0-4.933-3.135-8.276-7.899-8.276c-4.726,0-7.857,3.344-7.857,8.276C128.771,27.775,131.903,31.161,136.628,31.161z M144.278,0.1
		v5.393h-14.506V0.1H144.278z"/>
</g>
<g>
	<path d="M0,33.471V1.479h11.711c3.765,0,6.914,1.228,9.448,3.682s3.801,5.599,3.801,9.437v5.757c0,3.854-1.267,7.002-3.801,9.448
		s-5.684,3.669-9.448,3.669H0z M7.427,7.193v20.565h4.285c1.685,0,3.072-0.688,4.164-2.063c1.092-1.376,1.637-3.157,1.637-5.341
		v-5.801c0-2.152-0.546-3.918-1.637-5.295c-1.091-1.377-2.479-2.064-4.164-2.064L7.427,7.193L7.427,7.193z"/>
	<path d="M45.681,27.254h-9.514l-1.846,6.218h-7.822L36.936,1.479h3.977v0.022l0.022-0.022h3.977l10.459,31.992h-7.822
		L45.681,27.254z M37.881,21.541h6.086l-2.988-9.933h-0.132L37.881,21.541z"/>
	<path d="M65.523,33.471h-7.405V1.479h7.405V33.471z"/>
	<path d="M78.51,27.759h13.732v5.713h-21.16V1.479h7.427L78.51,27.759L78.51,27.759z"/>
	<path d="M101.822,15.454h0.131l6.373-13.976h8.041L105.513,22.22v11.25h-7.406V21.891L87.43,1.479h8.041L101.822,15.454z"/>
	<path fill="#6E5BAA" d="M118.806,33.471V1.479h11.711c3.767,0,6.914,1.228,9.449,3.682c2.532,2.454,3.801,5.599,3.801,9.437v5.757
		c0,3.854-1.269,7.002-3.801,9.448c-2.535,2.446-5.685,3.669-9.449,3.669H118.806z M126.235,7.193v20.565h4.282
		c1.687,0,3.074-0.688,4.164-2.063c1.092-1.377,1.638-3.157,1.638-5.341v-5.801c0-2.152-0.546-3.918-1.638-5.295
		c-1.09-1.377-2.479-2.064-4.164-2.064L126.235,7.193L126.235,7.193z"/>
	<path fill="#6E5BAA" d="M174.793,20.353c0,3.94-1.25,7.189-3.746,9.744c-2.498,2.558-5.762,3.835-9.789,3.835
		c-4.059,0-7.348-1.277-9.867-3.835c-2.52-2.555-3.779-5.804-3.779-9.744v-5.757c0-3.926,1.258-7.17,3.771-9.733
		c2.512-2.564,5.789-3.846,9.832-3.846c4.014,0,7.28,1.282,9.801,3.846c2.521,2.562,3.778,5.808,3.778,9.733V20.353L174.793,20.353z
		 M167.387,14.553c0-2.285-0.537-4.16-1.613-5.625c-1.078-1.465-2.598-2.197-4.561-2.197c-2.006,0-3.541,0.729-4.604,2.187
		c-1.062,1.458-1.593,3.336-1.593,5.636v5.801c0,2.314,0.537,4.204,1.615,5.669c1.075,1.466,2.616,2.197,4.625,2.197
		c1.946,0,3.457-0.731,4.524-2.197c1.07-1.465,1.604-3.354,1.604-5.669L167.387,14.553L167.387,14.553z"/>
	<path fill="#6E5BAA" d="M205.907,20.353c0,3.94-1.25,7.189-3.746,9.744c-2.498,2.558-5.763,3.835-9.789,3.835
		c-4.06,0-7.349-1.277-9.867-3.835c-2.52-2.555-3.779-5.804-3.779-9.744v-5.757c0-3.926,1.258-7.17,3.77-9.733
		c2.513-2.564,5.789-3.846,9.832-3.846c4.015,0,7.281,1.282,9.801,3.846c2.521,2.562,3.779,5.808,3.779,9.733V20.353L205.907,20.353
		z M198.5,14.553c0-2.285-0.537-4.16-1.613-5.625c-1.078-1.465-2.598-2.197-4.561-2.197c-2.006,0-3.541,0.729-4.604,2.187
		c-1.062,1.458-1.592,3.336-1.592,5.636v5.801c0,2.314,0.536,4.204,1.614,5.669c1.076,1.466,2.617,2.197,4.625,2.197
		c1.947,0,3.457-0.731,4.525-2.197c1.07-1.465,1.604-3.354,1.604-5.669v-5.801H198.5z"/>
	<path fill="#6E5BAA" d="M235.702,29.055c-1.113,1.349-2.683,2.498-4.703,3.449c-2.021,0.953-4.621,1.429-7.801,1.429
		c-3.97,0-7.191-1.216-9.668-3.646c-2.476-2.433-3.713-5.588-3.713-9.472v-6.679c0-3.853,1.204-7.002,3.614-9.448
		c2.41-2.445,5.513-3.669,9.306-3.669c4.088,0,7.174,0.912,9.262,2.736c2.088,1.823,3.094,4.317,3.021,7.481l-0.045,0.132h-6.965
		c0-1.567-0.418-2.732-1.252-3.494c-0.836-0.762-2.097-1.144-3.779-1.144c-1.729,0-3.12,0.682-4.176,2.043
		c-1.056,1.362-1.582,3.136-1.582,5.317v6.723c0,2.228,0.524,4.019,1.571,5.373c1.048,1.355,2.517,2.032,4.404,2.032
		c1.363,0,2.437-0.109,3.221-0.329c0.783-0.221,1.402-0.514,1.855-0.879v-5.713h-5.668v-4.922H235.7v12.679H235.702z"/>
</g>
</svg>
