<?xml version="1.0" encoding="utf-8"?>
<!DOCTYPE svg PUBLIC "-//W3C//DTD SVG 1.1//EN" "http://www.w3.org/Graphics/SVG/1.1/DTD/svg11.dtd">
<svg version="1.1" id="Layer_1" xmlns="http://www.w3.org/2000/svg" xmlns:xlink="http://www.w3.org/1999/xlink" x="0px" y="0px"
	 width="152.244px" height="38.2px" viewBox="0 0 152.244 38.2" enable-background="new 0 0 152.244 38.2" xml:space="preserve">
<g>
	<path d="M13.191,8.252c8.361,0,15.133,5.978,15.133,14.756c0,8.778-6.772,14.506-15.133,14.506H0.399V8.252H13.191z M13.191,30.951
		c4.18,0,7.817-2.927,7.817-7.942c0-5.017-3.637-8.194-7.817-8.194H7.422v16.136H13.191z"/>
	<path d="M47.05,32.916h-11.58l-1.672,4.599h-7.566L37.937,8.252h6.647l11.705,29.262h-7.566L47.05,32.916z M44.792,26.771
		l-2.09-5.685c-0.627-1.672-1.38-4.306-1.421-4.306h-0.042c-0.042,0-0.794,2.634-1.421,4.306l-2.091,5.685H44.792z"/>
	<path d="M57.875,37.515V8.252h7.023v29.262H57.875z"/>
	<path fill="#00A4A7" d="M84.086,17.533c-0.711-2.592-2.97-3.805-5.06-3.805s-3.302,1.046-3.302,2.215
		c0,1.924,2.926,2.634,6.479,3.93c4.348,1.589,8.904,4.055,8.904,9.071c0,5.351-4.6,9.155-11.413,9.155
		c-6.103,0-10.451-3.386-12.374-8.861l6.73-1.798c0.752,2.216,2.842,4.432,5.936,4.432c2.509,0,3.679-1.172,3.679-2.593
		c0-2.34-3.428-2.926-7.607-4.515c-3.512-1.337-7.567-3.261-7.567-8.402c0-4.557,4.599-8.695,10.953-8.695
		c5.602,0,10.033,3.428,11.412,8.027L84.086,17.533z"/>
	<path fill="#00A4A7" d="M118.737,8.252v29.262h-7.021V26.144h-10.953v11.371H93.74V8.252h7.022v11.329h10.953V8.252H118.737z"/>
	<path fill="#00A4A7" d="M136.629,7.667c8.402,0,15.216,6.396,15.216,15.217S145.031,38.1,136.629,38.1s-15.176-6.396-15.176-15.216
		S128.227,7.667,136.629,7.667z M136.629,31.16c4.765,0,7.9-3.385,7.9-8.277c0-4.933-3.136-8.277-7.9-8.277
		c-4.725,0-7.859,3.344-7.859,8.277C128.77,27.775,131.904,31.16,136.629,31.16z M144.278,0.1v5.393h-14.505V0.1H144.278z"/>
</g>
</svg>
