<?xml version="1.0" encoding="utf-8"?>
<!-- Generator: Adobe Illustrator 16.0.0, SVG Export Plug-In . SVG Version: 6.00 Build 0)  -->
<!DOCTYPE svg PUBLIC "-//W3C//DTD SVG 1.1//EN" "http://www.w3.org/Graphics/SVG/1.1/DTD/svg11.dtd">
<svg version="1.1" id="Layer_1" xmlns="http://www.w3.org/2000/svg" xmlns:xlink="http://www.w3.org/1999/xlink" x="0px" y="0px"
	 width="152.244px" height="38.2px" viewBox="0 0 152.244 38.2" enable-background="new 0 0 152.244 38.2" xml:space="preserve">
<g>
	<path d="M13.191,8.252c8.361,0,15.133,5.978,15.133,14.756c0,8.777-6.772,14.506-15.133,14.506H0.399V8.252H13.191z M13.191,30.952
		c4.18,0,7.817-2.928,7.817-7.943c0-5.016-3.637-8.193-7.817-8.193H7.422v16.137H13.191z"/>
	<path d="M47.05,32.917H35.47l-1.672,4.599h-7.566L37.937,8.252h6.647l11.705,29.262h-7.566L47.05,32.917z M44.792,26.771
		l-2.09-5.685c-0.627-1.672-1.38-4.306-1.421-4.306h-0.042c-0.042,0-0.794,2.634-1.421,4.306l-2.091,5.685H44.792z"/>
	<path d="M57.875,37.515V8.252h7.023v29.262L57.875,37.515L57.875,37.515z"/>
	<path fill="#00A4A7" d="M84.086,17.533c-0.711-2.592-2.97-3.805-5.06-3.805s-3.302,1.046-3.302,2.215
		c0,1.924,2.925,2.634,6.479,3.931c4.348,1.588,8.903,4.055,8.903,9.07c0,5.352-4.6,9.155-11.412,9.155
		c-6.104,0-10.451-3.386-12.375-8.861l6.73-1.798c0.752,2.217,2.842,4.432,5.936,4.432c2.51,0,3.68-1.172,3.68-2.593
		c0-2.34-3.428-2.926-7.607-4.515c-3.512-1.338-7.567-3.262-7.567-8.402c0-4.557,4.599-8.695,10.953-8.695
		c5.602,0,10.033,3.428,11.412,8.027L84.086,17.533z"/>
	<path fill="#00A4A7" d="M118.737,8.252v29.262h-7.021v-11.37h-10.953v11.371H93.74V8.252h7.022v11.329h10.952V8.252H118.737z"/>
	<path fill="#00A4A7" d="M136.629,7.667c8.402,0,15.216,6.396,15.216,15.216c0,8.822-6.813,15.217-15.216,15.217
		c-8.401,0-15.176-6.396-15.176-15.217C121.453,14.064,128.228,7.667,136.629,7.667z M136.629,31.161
		c4.765,0,7.899-3.386,7.899-8.277c0-4.933-3.135-8.277-7.899-8.277c-4.726,0-7.858,3.344-7.858,8.277
		C128.771,27.775,131.903,31.161,136.629,31.161z M144.278,0.1v5.393h-14.506V0.1H144.278z"/>
</g>
</svg>
