<?xml version="1.0" encoding="UTF-8" standalone="no"?>
<!-- Created with Inkscape (http://www.inkscape.org/) -->

<svg
   xmlns:dc="http://purl.org/dc/elements/1.1/"
   xmlns:cc="http://creativecommons.org/ns#"
   xmlns:rdf="http://www.w3.org/1999/02/22-rdf-syntax-ns#"
   xmlns:svg="http://www.w3.org/2000/svg"
   xmlns="http://www.w3.org/2000/svg"
   version="1.1"
   width="283"
   height="300"
   id="svg2">
  <metadata
     id="metadata44">
    <rdf:RDF>
      <cc:Work
         rdf:about="">
        <dc:format>image/svg+xml</dc:format>
        <dc:type
           rdf:resource="http://purl.org/dc/dcmitype/StillImage" />
        <dc:title></dc:title>
      </cc:Work>
    </rdf:RDF>
  </metadata>
  <defs
     id="defs4" />
  <g
     id="g3043">
    <path
       d="m 156.11456,261.2006 c -0.51375,0.28313 -1.0475,0.62 -1.5725,0.85688 -1.58,0.72025 -3.19625,0.90825 -4.62875,0.90825 -1.53125,0 -3.91125,-0.0978 -6.3475,-1.857 -3.39,-2.39113 -4.8675,-6.49513 -4.8675,-10.07663 0,-7.40437 6.0175,-11.03025 10.92625,-11.03025 1.72125,0 3.49,0.43063 4.9175,1.34025 2.385,1.56988 3.0075,3.626 3.34125,4.72663 l -11.22,4.53125 -3.6675,0.29537 c 1.1925,6.05225 5.29125,9.58738 9.82625,9.58738 2.43625,0 4.2025,-0.8545 5.82625,-1.67237 l -2.53375,2.39024 z m -4.4825,-14.22662 c 0.9025,-0.3315 1.385,-0.61863 1.385,-1.2925 0,-1.90525 -2.14875,-4.105 -4.73,-4.105 -1.90875,0 -5.48875,1.48388 -5.48875,6.64312 0,0.8115 0.0988,1.67088 0.1475,2.52788 l 8.68625,-3.7735"
       id="path8"
       style="fill:#1476c6;fill-opacity:1;fill-rule:nonzero;stroke:none" />
    <path
       d="m 137.55081,262.24648 -8.44875,0 c 1.0975,-1.42588 1.28875,-1.57325 1.28875,-2.5205 l 0,-7.78325 c 0,-3.72313 0.05,-9.02787 0.195,-13.98975 0.045,-2.4385 0.235,-5.49075 0.28,-7.6875 l -3.7175,0 3.5775,-1.72313 6.825,0 c -1.4775,0.86325 -1.95625,1.14988 -2.14375,2.82375 -0.38625,3.67188 -0.4325,9.49701 -0.4325,16.27975 l 0,11.023 c 0,1.86026 0.33375,2.15175 1.90875,2.28751 0.80625,0.10499 1.625,0.15387 2.43375,0.24424 l -1.76625,1.04588"
       id="path10"
       style="fill:#1476c6;fill-opacity:1;fill-rule:nonzero;stroke:none" />
    <path
       d="m 121.89956,242.34023 c 1.095,0.90675 3.3825,2.81737 3.3825,6.45062 0,3.53125 -2.00375,5.20263 -4.005,6.77738 -0.62125,0.62012 -1.3425,1.294 -1.3425,2.34125 0,1.045 0.72125,1.62362 1.245,2.04837 l 1.72,1.33551 c 2.09625,1.76849 4.00875,3.39112 4.00875,6.67962 0,4.48975 -4.34375,9.02587 -12.5525,9.02587 -6.9175,0 -10.26,-3.291 -10.26,-6.82612 0,-1.72025 0.85875,-4.15425 3.6725,-5.82763 2.96125,-1.80662 6.96625,-2.05325 9.115,-2.19 -0.66875,-0.86174 -1.43,-1.76512 -1.43,-3.24362 0,-0.81788 0.24125,-1.28763 0.48,-1.86625 -0.52875,0.0499 -1.05,0.0953 -1.52875,0.0953 -5.06,0 -7.9225,-3.7695 -7.9225,-7.49175 0,-2.19625 0.99875,-4.63663 3.05125,-6.40175 2.72375,-2.24425 5.96875,-2.627 8.545,-2.627 l 9.83,0 -3.05375,1.72025 -2.955,0 z m -3.39,21.19675 c -0.38375,-0.0464 -0.6225,-0.0464 -1.09875,-0.0464 -0.43,0 -3.00625,0.0952 -5.01,0.76412 -1.0525,0.38187 -4.10875,1.52688 -4.10875,4.91462 0,3.38613 3.29625,5.82275 8.40125,5.82275 4.58375,0 7.01875,-2.19975 7.01875,-5.15137 0,-2.439 -1.58,-3.72463 -5.2025,-6.30375 m 1.3875,-9.06988 c 1.09375,-1.09612 1.1875,-2.621 1.1875,-3.48387 0,-3.42913 -2.05,-8.78613 -6.01,-8.78613 -1.245,0 -2.58125,0.62313 -3.3425,1.57663 -0.81375,1.001 -1.0525,2.29937 -1.0525,3.53625 0,3.19962 1.8625,8.5 5.96875,8.5 1.19375,0 2.48125,-0.58113 3.24875,-1.34288"
       id="path12"
       style="fill:#1476c6;fill-opacity:1;fill-rule:nonzero;stroke:none" />
    <path
       d="m 92.359564,262.86798 c -7.59,0 -11.6475,-5.913 -11.6475,-11.25975 0,-6.26363 5.10375,-11.604 12.3575,-11.604 7.017496,0 11.414996,5.48638 11.414996,11.26712 0,5.63963 -4.35,11.59663 -12.124996,11.59663 m 5.96375,-3.86963 c 1.14,-1.521 1.43,-3.43012 1.43,-5.29287 0,-4.19925 -2.005,-12.22225 -7.9225,-12.22225 -1.57375,0 -3.14875,0.624 -4.29625,1.61475 -1.855,1.67675 -2.19375,3.78425 -2.19375,5.837 0,4.724 2.34,12.50238 8.115,12.50238 1.86125,0 3.7675,-0.90825 4.8675,-2.43901"
       id="path14"
       style="fill:#1476c6;fill-opacity:1;fill-rule:nonzero;stroke:none" />
    <path
       d="m 66.960814,262.86798 c -7.5875,0 -11.64375,-5.913 -11.64375,-11.25975 0,-6.26363 5.1025,-11.604 12.3625,-11.604 7.0125,0 11.405,5.48638 11.405,11.26712 0,5.63963 -4.34375,11.59663 -12.12375,11.59663 m 5.9675,-3.86963 c 1.1425,-1.521 1.4325,-3.43012 1.4325,-5.29287 0,-4.19925 -2.00375,-12.22225 -7.92125,-12.22225 -1.5775,0 -3.1525,0.624 -4.29625,1.61475 -1.86375,1.67675 -2.2025,3.78425 -2.2025,5.837 0,4.724 2.34375,12.50238 8.12125,12.50238 1.86,0 3.7675,-0.90825 4.86625,-2.43901"
       id="path16"
       style="fill:#1476c6;fill-opacity:1;fill-rule:nonzero;stroke:none" />
    <path
       d="m 52.239564,261.20785 -6.406625,1.47213 c -2.59275,0.40287 -4.92275,0.76275 -7.379875,0.76275 -12.351,0 -17.05125,-9.0855 -17.05125,-16.19675 0,-8.6885 6.671375,-16.74175 18.0855,-16.74175 2.410125,0 4.73725,0.3575 6.83975,0.941 3.3575,0.93987 4.9275,2.09712 5.9125,2.771 l -3.7175,3.5365 -1.5665,0.35987 1.116625,-1.787 c -1.517,-1.4815 -4.294375,-4.21337 -9.576625,-4.21337 -7.0635,0 -12.3935,5.37687 -12.3935,13.20162 0,8.4145 6.089375,16.33838 15.84075,16.33838 2.86475,0 4.34525,-0.58113 5.682125,-1.12312 l 0,-7.19963 -6.756375,0.35987 3.582125,-1.92237 9.482625,0 -1.1625,1.11575 c -0.3125,0.2695 -0.3575,0.35487 -0.4475,0.71287 -0.0425,0.40525 -0.08375,1.70413 -0.08375,2.14838 l 0,5.46387"
       id="path18"
       style="fill:#1476c6;fill-opacity:1;fill-rule:nonzero;stroke:none" />
    <path
       d="m 176.63081,262.24548 -3.395,0 -4.95625,-21.61275 2.68,0 4.06625,19.38125 4.24,-19.38125 3.44,0 4.2875,19.38125 3.9725,-19.38125 2.63375,0 -4.91,21.61275 -3.39625,0 -4.28375,-19.294 -4.37875,19.294"
       id="path20"
       style="fill:#1476c6;fill-opacity:1;fill-rule:nonzero;stroke:none" />
    <path
       d="m 209.37331,247.24061 c 0,-3.52788 -1.56375,-4.86813 -5.135,-4.86813 -2.7675,0 -4.42,1.519 -4.82375,4.018 l -2.4125,-0.356 c 0.49125,-3.52825 3.26,-5.895 7.3225,-5.895 4.78125,0 7.46125,2.05325 7.46125,6.8325 l 0,11.03275 c 0,1.8735 0.13375,3.17 0.4025,4.24075 l -2.5025,0 c -0.2225,-0.58113 -0.3125,-1.65288 -0.3125,-2.27788 -1.02625,1.51613 -3.44,2.76863 -5.71375,2.76863 -3.97875,0 -7.10125,-2.41463 -7.10125,-7.23388 0,-4.42387 3.17125,-6.8775 7.68,-6.8775 2.18875,0 3.975,0.40138 5.135,0.9375 l 0,-2.32174 z m 0,4.64449 c -1.205,-0.5835 -2.9,-1.07175 -5.1775,-1.07175 -3.04,0 -5.18375,1.51763 -5.18375,4.689 0,3.34713 2.01,4.95701 4.78,4.95701 2.45625,0 4.6875,-1.78813 5.58125,-3.707 l 0,-4.86726"
       id="path22"
       style="fill:#1476c6;fill-opacity:1;fill-rule:nonzero;stroke:none" />
    <path
       d="m 216.70206,262.24548 2.45605,0 0,-30.815 -2.45605,0 0,30.815 z"
       id="path24"
       style="fill:#1476c6;fill-opacity:1;fill-rule:nonzero;stroke:none" />
    <path
       d="m 224.38456,262.24548 2.45753,0 0,-30.815 -2.45753,0 0,30.815 z"
       id="path26"
       style="fill:#1476c6;fill-opacity:1;fill-rule:nonzero;stroke:none" />
    <path
       d="m 239.03706,260.41435 c 2.635,0 4.555,-1.56487 5.04625,-5.62737 l 2.49875,0.35737 c -0.62375,5.22363 -3.6175,7.59188 -7.545,7.59188 -5.13625,0 -8.17625,-3.7515 -8.17625,-11.47613 0,-6.92287 2.59,-11.12062 7.90875,-11.12062 5.5825,0 7.8125,4.64312 7.8125,10.939 l 0,0.80662 -13.17125,0 c 0,5.9375 2.23,8.52925 5.62625,8.52925 m 4.91125,-10.76162 0,-0.0904 c -0.13375,-4.0205 -1.7425,-7.146 -5.17875,-7.146 -3.35125,0 -5.1825,2.8145 -5.35875,7.23638 l 10.5375,0"
       id="path28"
       style="fill:#1476c6;fill-opacity:1;fill-rule:nonzero;stroke:none" />
    <path
       d="m 257.97456,262.11223 c -0.535,0.22362 -1.5175,0.40175 -2.59,0.40175 -3.21375,0 -4.24,-1.60888 -4.24,-4.69138 l 0,-14.9585 -2.81125,0 0,-2.23137 2.81125,0 0,-6.97125 2.50125,-0.9815 0,7.95275 4.32875,0 0,2.23137 -4.32875,0 0,14.6475 c 0,2.05325 0.4025,2.63525 2.14125,2.63525 0.85125,0 1.60875,-0.17925 2.1875,-0.49175 l 0,2.45713"
       id="path30"
       style="fill:#1476c6;fill-opacity:1;fill-rule:nonzero;stroke:none" />
  </g>
  <g
     id="g3025">
    <path
       d="M 111.05786,105.57066 C 100.49411,90.998364 85.780435,78.236892 69.113828,69.310406 66.571513,67.951563 63.719681,67.238153 60.8523,67.238153 c -6.495902,0 -12.420859,3.54391 -15.476265,9.258423 -4.562137,8.529826 -1.341847,19.168424 7.184001,23.739244 25.721818,13.76125 42.313938,40.01171 44.261805,70.35099 0,0 -0.0058,-0.0676 -0.0058,-0.0777 -0.291077,-3.37975 0.257088,-6.68501 1.816249,-9.83045 0.207913,-0.43789 0.456323,-0.90397 0.765841,-1.41236 8.022519,-13.21346 12.262849,-28.42287 12.262849,-43.97651 0,-3.26296 -0.22888,-6.50169 -0.60313,-9.71909"
       id="path34"
       style="fill:#1476c6;fill-opacity:1;fill-rule:nonzero;stroke:none" />
    <path
       d="M 212.87267,72.561791 C 209.77243,58.990727 205.17196,45.74075 199.18879,33.16441 c -3.19932,-6.719 -10.07199,-11.060931 -17.52284,-11.060931 -2.88004,0 -5.68234,0.634222 -8.30637,1.884227 -9.65147,4.593233 -13.76017,16.210646 -9.17273,25.833548 9.84492,20.757235 14.71079,42.688542 14.71079,65.468496 0,22.7785 -4.89118,44.68558 -14.54807,65.09967 -0.14572,0.3106 -1.83505,3.92647 -1.83505,8.10026 -0.0155,1.17226 0.12583,2.92379 0.49465,4.49163 1.25253,5.48744 4.84019,10.46612 10.58183,13.22032 2.62294,1.23591 5.39993,1.86471 8.27273,1.86471 7.06794,0 13.61735,-3.91273 16.99457,-10.05392 3.86861,-7.25993 7.77411,-16.79388 11.17664,-29.0683 1.07644,-3.69614 1.97752,-7.16809 2.82507,-10.921 3.14978,-13.85599 4.79934,-28.13576 4.79934,-42.73337 0,-14.42405 -1.64956,-28.911376 -4.78668,-42.727959"
       id="path36"
       style="fill:#47ae33;fill-opacity:1;fill-rule:nonzero;stroke:none" />
    <path
       d="m 131.03118,52.280404 c -0.34025,-0.570583 -0.73583,-1.101754 -1.13141,-1.625693 -1.28399,-1.692225 -2.82326,-3.096265 -4.55092,-4.2302 -2.92777,-1.918217 -6.44781,-3.032626 -10.01559,-3.032626 -2.95922,0 -4.47752,0.36014 -6.60727,1.213122 -2.18398,0.870339 -4.5032,2.062128 -6.59787,4.274314 -2.0802,2.194831 -3.329124,4.431966 -4.201994,6.765646 -1.754056,4.679291 -1.542166,10.8306 1.521194,15.75577 6.43516,10.346075 10.22205,22.083535 11.61054,34.169923 0.37425,3.2174 0.60313,6.45613 0.60313,9.71909 0,15.55364 -4.24033,30.76305 -12.262845,43.97651 -0.281315,0.46175 -0.528278,0.93904 -0.765841,1.41236 -1.559161,3.14544 -2.122874,6.55664 -1.81191,9.87312 0.529725,5.61724 3.590196,10.9322 8.771366,14.07475 1.33462,0.80525 2.75276,1.41272 4.21899,1.8647 1.73562,0.52249 3.528,0.819 5.34606,0.819 6.51109,0 12.41688,-3.31901 15.79518,-8.88129 10.16131,-16.73314 16.09205,-35.66726 17.36194,-55.19438 0.16958,-2.64102 0.25853,-5.28675 0.25853,-7.94477 0,-22.260354 -6.06236,-44.047388 -17.54128,-63.009346"
       id="path38"
       style="fill:#ed114c;fill-opacity:1;fill-rule:nonzero;stroke:none" />
    <path
       d="m 164.34378,180.38942 c 9.66268,-20.41409 14.55386,-42.32117 14.55386,-65.09967 0,-7.83088 -0.53659,-13.53997 -0.94229,-17.154391 -12.69205,-20.303806 -31.10042,-38.452556 -52.65026,-51.739414 0.0184,0.01013 0.49863,0.334829 0.53407,0.357609 1.49299,1.073189 2.74986,2.200616 4.06061,3.901157 0.31929,0.419441 0.76404,1.009911 1.13141,1.625693 11.47892,18.961958 17.54128,40.748992 17.54128,63.009346 0,2.65513 -0.089,5.30375 -0.25853,7.94477 9.20491,17.51453 14.22626,37.42276 14.22626,58.31306 0,1.65968 0.0297,4.32892 -0.0101,6.27823 0.089,-2.18218 0.63857,-4.48874 1.42538,-6.50422 0.12402,-0.31783 0.24841,-0.63278 0.38834,-0.93217"
       id="path40"
       style="fill:#fbbf16;fill-opacity:1;fill-rule:nonzero;stroke:none" />
  </g>
</svg>
