<?xml version="1.0" encoding="utf-8"?>
<!-- Generator: Adobe Illustrator 16.0.4, SVG Export Plug-In . SVG Version: 6.00 Build 0)  -->
<!DOCTYPE svg PUBLIC "-//W3C//DTD SVG 1.1//EN" "http://www.w3.org/Graphics/SVG/1.1/DTD/svg11.dtd">
<svg version="1.1" id="Layer_1" xmlns="http://www.w3.org/2000/svg" xmlns:xlink="http://www.w3.org/1999/xlink" x="0px" y="0px"
	 width="334px" height="33.5px" viewBox="-50.3 3.7 334 33.5" style="enable-background:new -50.3 3.7 334 33.5;"
	 xml:space="preserve">
<style type="text/css">
<![CDATA[
	.st0{display:inline;}
	.st1{display:inline;fill:#00A4A7;}
	.st2{fill:#6E5BAA;}
	.st3{display:none;}
]]>
</style>
<g class="st3">
	<path class="st0" d="M13.2,8.3c8.4,0,15.1,6,15.1,14.8c0,8.8-6.8,14.5-15.1,14.5H0.4V8.3H13.2z M13.2,31C17.4,31,21,28,21,23
		c0-5-3.6-8.2-7.8-8.2H7.4V31H13.2z"/>
	<path class="st0" d="M47,32.9H35.5l-1.7,4.6h-7.6L37.9,8.3h6.6l11.7,29.3h-7.6L47,32.9z M44.8,26.8l-2.1-5.7
		c-0.6-1.7-1.4-4.3-1.4-4.3h0c0,0-0.8,2.6-1.4,4.3l-2.1,5.7H44.8z"/>
	<path class="st0" d="M57.9,37.5V8.3h7v29.3L57.9,37.5L57.9,37.5z"/>
	<path class="st1" d="M84.1,17.5c-0.7-2.6-3-3.8-5.1-3.8s-3.3,1-3.3,2.2c0,1.9,2.9,2.6,6.5,3.9c4.3,1.6,8.9,4.1,8.9,9.1
		c0,5.4-4.6,9.2-11.4,9.2c-6.1,0-10.5-3.4-12.4-8.9l6.7-1.8c0.8,2.2,2.8,4.4,5.9,4.4c2.5,0,3.7-1.2,3.7-2.6c0-2.3-3.4-2.9-7.6-4.5
		c-3.5-1.3-7.6-3.3-7.6-8.4c0-4.6,4.6-8.7,11-8.7c5.6,0,10,3.4,11.4,8L84.1,17.5z"/>
	<path class="st1" d="M118.7,8.3v29.3h-7V26.1h-11v11.4h-7V8.3h7v11.3h11V8.3H118.7z"/>
	<path class="st1" d="M136.6,7.7c8.4,0,15.2,6.4,15.2,15.2c0,8.8-6.8,15.2-15.2,15.2c-8.4,0-15.2-6.4-15.2-15.2
		C121.5,14.1,128.2,7.7,136.6,7.7z M136.6,31.2c4.8,0,7.9-3.4,7.9-8.3c0-4.9-3.1-8.3-7.9-8.3c-4.7,0-7.9,3.3-7.9,8.3
		C128.8,27.8,131.9,31.2,136.6,31.2z M144.3,0.1v5.4h-14.5V0.1H144.3z"/>
</g>
<g>
	<path d="M-42.1,25.4v11h-7.4v-32h12.2c3.8,0,6.8,1,9,2.9s3.3,4.5,3.3,7.6s-1.1,5.7-3.3,7.6c-2.2,1.9-5.2,2.9-9,2.9H-42.1z
		 M-42.1,19.7h4.8c1.6,0,2.8-0.4,3.7-1.3c0.8-0.9,1.3-2,1.3-3.4c0-1.4-0.4-2.6-1.3-3.5s-2.1-1.4-3.7-1.4h-4.8V19.7z"/>
	<path d="M-8,30.2h-9.5l-1.8,6.2h-7.8l10.4-32h4v0l0,0h4l10.5,32h-7.8L-8,30.2z M-15.8,24.5h6.1l-3-9.9h-0.1L-15.8,24.5z"/>
	<path d="M24.2,10.1h-8.5v26.3H8.4V10.1H0.1V4.4h24.2V10.1z"/>
	<path d="M34.7,24.1v12.3h-7.4v-32h11.1c3.7,0,6.6,0.9,8.8,2.6s3.3,4.1,3.3,7c0,1.7-0.4,3.1-1.3,4.3c-0.9,1.2-2.2,2.2-3.9,2.9
		c2,0.6,3.4,1.5,4.2,2.8c0.9,1.3,1.3,2.9,1.3,4.8v2c0,0.8,0.1,1.8,0.4,2.9c0.2,1.1,0.7,1.8,1.3,2.3v0.4h-7.7c-0.6-0.5-1-1.3-1.1-2.4
		s-0.3-2.2-0.3-3.2v-1.9c0-1.5-0.4-2.7-1.2-3.5s-2-1.2-3.5-1.2H34.7z M34.7,18.4h3.8c1.5,0,2.6-0.3,3.4-1c0.8-0.7,1.2-1.7,1.2-2.9
		c0-1.3-0.4-2.4-1.2-3.2c-0.8-0.8-2-1.2-3.4-1.2h-3.7V18.4z"/>
	<path d="M63.8,36.4h-7.4v-32h7.4V36.4z"/>
	<path d="M93.9,25.6l0,0.1c0.1,3.6-1,6.4-3.1,8.3c-2.1,1.9-5.1,2.8-9,2.8c-4,0-7.1-1.2-9.5-3.6c-2.4-2.4-3.6-5.6-3.6-9.5v-6.7
		c0-3.9,1.2-7.1,3.5-9.5C74.5,5.2,77.6,4,81.4,4c4.1,0,7.2,0.9,9.4,2.8C93,8.7,94.1,11.4,94,15L94,15.2h-7.2c0-2-0.4-3.4-1.3-4.2
		c-0.8-0.8-2.2-1.3-4.1-1.3c-1.7,0-3,0.7-3.8,2c-0.9,1.3-1.3,3.1-1.3,5.4v6.7c0,2.2,0.5,4,1.5,5.4c1,1.3,2.4,2,4.2,2
		c1.7,0,2.9-0.4,3.7-1.3s1.1-2.3,1.1-4.3H93.9z"/>
	<path d="M107.6,23.6h-2.1v12.8h-7.4v-32h7.4v12.5h1.5l7.2-12.5h9.3L113.6,19l10.9,17.4h-9.5L107.6,23.6z"/>
	<path class="st2" d="M138,36.4v-32h11.7c3.8,0,6.9,1.2,9.4,3.7c2.5,2.5,3.8,5.6,3.8,9.4v5.8c0,3.9-1.3,7-3.8,9.4
		c-2.5,2.4-5.7,3.7-9.4,3.7H138z M145.4,10.1v20.6h4.3c1.7,0,3.1-0.7,4.2-2.1c1.1-1.4,1.6-3.2,1.6-5.3v-5.8c0-2.2-0.5-3.9-1.6-5.3
		c-1.1-1.4-2.5-2.1-4.2-2.1H145.4z"/>
	<path class="st2" d="M193.6,4.4v20.7c0,3.7-1.2,6.5-3.6,8.6c-2.4,2.1-5.6,3.1-9.5,3.1c-3.9,0-7.1-1-9.6-3.1
		c-2.4-2.1-3.7-4.9-3.7-8.6V4.4h7.4v20.7c0,2,0.5,3.5,1.5,4.5c1,1,2.4,1.5,4.3,1.5c1.8,0,3.2-0.5,4.2-1.5c1-1,1.5-2.5,1.5-4.5V4.4
		H193.6z"/>
	<path class="st2" d="M223.8,32c-1.1,1.3-2.7,2.5-4.7,3.5c-2,1-4.6,1.4-7.8,1.4c-4,0-7.2-1.2-9.7-3.6c-2.5-2.4-3.7-5.6-3.7-9.5v-6.7
		c0-3.9,1.2-7,3.6-9.4S207,4,210.8,4c4.1,0,7.2,0.9,9.3,2.7c2.1,1.8,3.1,4.3,3,7.5l0,0.1h-7c0-1.6-0.4-2.7-1.3-3.5
		c-0.8-0.8-2.1-1.1-3.8-1.1c-1.7,0-3.1,0.7-4.2,2s-1.6,3.1-1.6,5.3v6.7c0,2.2,0.5,4,1.6,5.4c1,1.4,2.5,2,4.4,2
		c1.4,0,2.4-0.1,3.2-0.3c0.8-0.2,1.4-0.5,1.9-0.9v-5.7h-5.7v-4.9h13.1V32z"/>
	<path class="st2" d="M245,30.2h-9.5l-1.8,6.2h-7.8l10.4-32h4v0l0,0h4l10.5,32h-7.8L245,30.2z M237.2,24.5h6.1l-3-9.9h-0.1
		L237.2,24.5z"/>
	<path class="st2" d="M283.7,36.4h-7.4l-11.7-20.1l-0.1,0v20.1H257v-32h7.4l11.7,20.1l0.1,0V4.4h7.4V36.4z"/>
</g>
</svg>
